# xmcd
#
# Track frame offsets: 
#        150
#        3750
#        15097
#        33740
#        53061
#        78003
#        102855
#        115340
#        128562
#        150900
#        170922
#        190858
#        216538
#
# Disc length: 3277 seconds
#
# Revision: 0
# Processed by: cddbd v1.5.2PL0 Copyright (c) Steve Scherf et al.
# Submitted via: ExactAudioCopy v0.99pb3
#
DISCID=970ccb0d
DTITLE=Grady - A Cup of Cold Poison
DYEAR=2007
DGENRE=Blues
TTITLE0=Foreword By Willie Nelson
TTITLE1=Chili Cold Blood
TTITLE2=Come And Take Me
TTITLE3=One Of These Days Youre Gonna Lie Down Dead
TTITLE4=Rolling Thunder
TTITLE5=A Cup Of Cold Poison
TTITLE6=Three Legged Race (Ft Alegandro Excovedo)
TTITLE7=Youre Whats Happening Baby
TTITLE8=Spadina (Who Is Loving You)
TTITLE9=Bad Old Days
TTITLE10=I Know I Can Make It
TTITLE11=West Coast Hobo In A Boxcar Blues (Stretched Out And Wild As 
TTITLE11=The World's Deepest Ocean)
TTITLE12=On The Wagon (Narration)
EXTD=
EXTT0=
EXTT1=
EXTT2=
EXTT3=
EXTT4=
EXTT5=
EXTT6=
EXTT7=
EXTT8=
EXTT9=
EXTT10=
EXTT11=
EXTT12=
PLAYORDER=
